<?xml version="1.0" encoding="UTF-8" standalone="no"?>
<!-- Created with Inkscape (http://www.inkscape.org/) -->

<svg
   width="241.88976"
   height="241.88976"
   viewBox="0 0 63.999996 63.999997"
   version="1.1"
   id="svg1"
   xmlns="http://www.w3.org/2000/svg"
   xmlns:svg="http://www.w3.org/2000/svg">
  <defs
     id="defs1" />
  <g
     id="layer1"
     transform="translate(-49.522958,-26.936674)">
    <rect
       style="fill:#aaccff;stroke-width:0"
       id="rect1"
       width="64"
       height="64"
       x="49.522957"
       y="26.936676" />
    <path
       style="font-size:240px;-inkscape-font-specification:sans-serif;text-align:center;text-anchor:middle;white-space:pre;fill:#f9f9f9;stroke-width:0"
       d="m 379.74023,195.73699 v 23.08594 q -13.47656,-6.44531 -25.42968,-9.60937 -11.95313,-3.16407 -23.08594,-3.16407 -19.33594,0 -29.88281,7.5 -10.42969,7.5 -10.42969,21.32813 0,11.60156 6.91406,17.57812 7.03125,5.85938 26.48438,9.49219 l 14.29687,2.92969 q 26.48438,5.03906 39.02344,17.8125 12.65625,12.65625 12.65625,33.98437 0,25.42969 -17.10938,38.55469 -16.99218,13.125 -49.92187,13.125 -12.42188,0 -26.48438,-2.8125 -13.94531,-2.8125 -28.94531,-8.32031 v -24.375 q 14.41406,8.08594 28.24219,12.1875 13.82812,4.10156 27.1875,4.10156 20.27344,0 31.28906,-7.96875 11.01563,-7.96875 11.01563,-22.73437 0,-12.89063 -7.96875,-20.15625 -7.85157,-7.26563 -25.89844,-10.89844 l -14.41406,-2.8125 q -26.48438,-5.27344 -38.32032,-16.52344 -11.83593,-11.25 -11.83593,-31.28906 0,-23.20313 16.28906,-36.5625 16.40625,-13.35938 45.11719,-13.35938 12.30468,0 25.07812,2.22657 12.77344,2.22656 26.13281,6.67968 z"
       id="text1"
       transform="matrix(0.26458333,0,0,0.26458333,-5.4469273,-15.491946)"
       aria-label="S" />
  </g>
</svg>
